<?xml version="1.0" encoding="utf-8" standalone="no"?>
<!DOCTYPE svg PUBLIC "-//W3C//DTD SVG 1.1//EN"
  "http://www.w3.org/Graphics/SVG/1.1/DTD/svg11.dtd">
<svg xmlns:xlink="http://www.w3.org/1999/xlink" width="999.46125pt" height="496.001029pt" viewBox="0 0 999.46125 496.001029" xmlns="http://www.w3.org/2000/svg" version="1.1">
 <metadata>
  <rdf:RDF xmlns:dc="http://purl.org/dc/elements/1.1/" xmlns:cc="http://creativecommons.org/ns#" xmlns:rdf="http://www.w3.org/1999/02/22-rdf-syntax-ns#">
   <cc:Work>
    <dc:type rdf:resource="http://purl.org/dc/dcmitype/StillImage"/>
    <dc:date>2025-03-14T00:36:28.262274</dc:date>
    <dc:format>image/svg+xml</dc:format>
    <dc:creator>
     <cc:Agent>
      <dc:title>Matplotlib v3.10.1, https://matplotlib.org/</dc:title>
     </cc:Agent>
    </dc:creator>
   </cc:Work>
  </rdf:RDF>
 </metadata>
 <defs>
  <style type="text/css">*{stroke-linejoin: round; stroke-linecap: butt}</style>
 </defs>
 <g id="figure_1">
  <g id="patch_1">
   <path d="M 0 496.001029 
L 999.46125 496.001029 
L 999.46125 0 
L 0 0 
z
" style="fill: #ffffff"/>
  </g>
  <g id="axes_1">
   <g id="patch_2">
    <path d="M 48.90125 428.747964 
L 992.26125 428.747964 
L 992.26125 25.3575 
L 48.90125 25.3575 
z
" style="fill: #ffffff"/>
   </g>
   <g id="matplotlib.axis_1">
    <g id="xtick_1">
     <g id="line2d_1">
      <path d="M 84.448724 428.747964 
L 84.448724 25.3575 
" clip-path="url(#p2bcd39f7cb)" style="fill: none; stroke: #b0b0b0; stroke-opacity: 0.3; stroke-width: 0.8; stroke-linecap: square"/>
     </g>
     <g id="line2d_2">
      <defs>
       <path id="m1a3a062500" d="M 0 0 
L 0 3.5 
" style="stroke: #000000; stroke-width: 0.8"/>
      </defs>
      <g>
       <use xlink:href="#m1a3a062500" x="84.448724" y="428.747964" style="stroke: #000000; stroke-width: 0.8"/>
      </g>
     </g>
     <g id="text_1">
      <!-- 2024-12-15 -->
      <g transform="translate(33.079273 471.386216) rotate(-30) scale(0.1 -0.1)">
       <defs>
        <path id="DejaVuSans-32" d="M 1228 531 
L 3431 531 
L 3431 0 
L 469 0 
L 469 531 
Q 828 903 1448 1529 
Q 2069 2156 2228 2338 
Q 2531 2678 2651 2914 
Q 2772 3150 2772 3378 
Q 2772 3750 2511 3984 
Q 2250 4219 1831 4219 
Q 1534 4219 1204 4116 
Q 875 4013 500 3803 
L 500 4441 
Q 881 4594 1212 4672 
Q 1544 4750 1819 4750 
Q 2544 4750 2975 4387 
Q 3406 4025 3406 3419 
Q 3406 3131 3298 2873 
Q 3191 2616 2906 2266 
Q 2828 2175 2409 1742 
Q 1991 1309 1228 531 
z
" transform="scale(0.015625)"/>
        <path id="DejaVuSans-30" d="M 2034 4250 
Q 1547 4250 1301 3770 
Q 1056 3291 1056 2328 
Q 1056 1369 1301 889 
Q 1547 409 2034 409 
Q 2525 409 2770 889 
Q 3016 1369 3016 2328 
Q 3016 3291 2770 3770 
Q 2525 4250 2034 4250 
z
M 2034 4750 
Q 2819 4750 3233 4129 
Q 3647 3509 3647 2328 
Q 3647 1150 3233 529 
Q 2819 -91 2034 -91 
Q 1250 -91 836 529 
Q 422 1150 422 2328 
Q 422 3509 836 4129 
Q 1250 4750 2034 4750 
z
" transform="scale(0.015625)"/>
        <path id="DejaVuSans-34" d="M 2419 4116 
L 825 1625 
L 2419 1625 
L 2419 4116 
z
M 2253 4666 
L 3047 4666 
L 3047 1625 
L 3713 1625 
L 3713 1100 
L 3047 1100 
L 3047 0 
L 2419 0 
L 2419 1100 
L 313 1100 
L 313 1709 
L 2253 4666 
z
" transform="scale(0.015625)"/>
        <path id="DejaVuSans-2d" d="M 313 2009 
L 1997 2009 
L 1997 1497 
L 313 1497 
L 313 2009 
z
" transform="scale(0.015625)"/>
        <path id="DejaVuSans-31" d="M 794 531 
L 1825 531 
L 1825 4091 
L 703 3866 
L 703 4441 
L 1819 4666 
L 2450 4666 
L 2450 531 
L 3481 531 
L 3481 0 
L 794 0 
L 794 531 
z
" transform="scale(0.015625)"/>
        <path id="DejaVuSans-35" d="M 691 4666 
L 3169 4666 
L 3169 4134 
L 1269 4134 
L 1269 2991 
Q 1406 3038 1543 3061 
Q 1681 3084 1819 3084 
Q 2600 3084 3056 2656 
Q 3513 2228 3513 1497 
Q 3513 744 3044 326 
Q 2575 -91 1722 -91 
Q 1428 -91 1123 -41 
Q 819 9 494 109 
L 494 744 
Q 775 591 1075 516 
Q 1375 441 1709 441 
Q 2250 441 2565 725 
Q 2881 1009 2881 1497 
Q 2881 1984 2565 2268 
Q 2250 2553 1709 2553 
Q 1456 2553 1204 2497 
Q 953 2441 691 2322 
L 691 4666 
z
" transform="scale(0.015625)"/>
       </defs>
       <use xlink:href="#DejaVuSans-32"/>
       <use xlink:href="#DejaVuSans-30" transform="translate(63.623047 0)"/>
       <use xlink:href="#DejaVuSans-32" transform="translate(127.246094 0)"/>
       <use xlink:href="#DejaVuSans-34" transform="translate(190.869141 0)"/>
       <use xlink:href="#DejaVuSans-2d" transform="translate(254.492188 0)"/>
       <use xlink:href="#DejaVuSans-31" transform="translate(290.576172 0)"/>
       <use xlink:href="#DejaVuSans-32" transform="translate(354.199219 0)"/>
       <use xlink:href="#DejaVuSans-2d" transform="translate(417.822266 0)"/>
       <use xlink:href="#DejaVuSans-31" transform="translate(453.90625 0)"/>
       <use xlink:href="#DejaVuSans-35" transform="translate(517.529297 0)"/>
      </g>
     </g>
    </g>
    <g id="xtick_2">
     <g id="line2d_3">
      <path d="M 209.101663 428.747964 
L 209.101663 25.3575 
" clip-path="url(#p2bcd39f7cb)" style="fill: none; stroke: #b0b0b0; stroke-opacity: 0.3; stroke-width: 0.8; stroke-linecap: square"/>
     </g>
     <g id="line2d_4">
      <g>
       <use xlink:href="#m1a3a062500" x="209.101663" y="428.747964" style="stroke: #000000; stroke-width: 0.8"/>
      </g>
     </g>
     <g id="text_2">
      <!-- 2025-01-01 -->
      <g transform="translate(157.732212 471.386216) rotate(-30) scale(0.1 -0.1)">
       <use xlink:href="#DejaVuSans-32"/>
       <use xlink:href="#DejaVuSans-30" transform="translate(63.623047 0)"/>
       <use xlink:href="#DejaVuSans-32" transform="translate(127.246094 0)"/>
       <use xlink:href="#DejaVuSans-35" transform="translate(190.869141 0)"/>
       <use xlink:href="#DejaVuSans-2d" transform="translate(254.492188 0)"/>
       <use xlink:href="#DejaVuSans-30" transform="translate(290.576172 0)"/>
       <use xlink:href="#DejaVuSans-31" transform="translate(354.199219 0)"/>
       <use xlink:href="#DejaVuSans-2d" transform="translate(417.822266 0)"/>
       <use xlink:href="#DejaVuSans-30" transform="translate(453.90625 0)"/>
       <use xlink:href="#DejaVuSans-31" transform="translate(517.529297 0)"/>
      </g>
     </g>
    </g>
    <g id="xtick_3">
     <g id="line2d_5">
      <path d="M 311.757025 428.747964 
L 311.757025 25.3575 
" clip-path="url(#p2bcd39f7cb)" style="fill: none; stroke: #b0b0b0; stroke-opacity: 0.3; stroke-width: 0.8; stroke-linecap: square"/>
     </g>
     <g id="line2d_6">
      <g>
       <use xlink:href="#m1a3a062500" x="311.757025" y="428.747964" style="stroke: #000000; stroke-width: 0.8"/>
      </g>
     </g>
     <g id="text_3">
      <!-- 2025-01-15 -->
      <g transform="translate(260.387573 471.386216) rotate(-30) scale(0.1 -0.1)">
       <use xlink:href="#DejaVuSans-32"/>
       <use xlink:href="#DejaVuSans-30" transform="translate(63.623047 0)"/>
       <use xlink:href="#DejaVuSans-32" transform="translate(127.246094 0)"/>
       <use xlink:href="#DejaVuSans-35" transform="translate(190.869141 0)"/>
       <use xlink:href="#DejaVuSans-2d" transform="translate(254.492188 0)"/>
       <use xlink:href="#DejaVuSans-30" transform="translate(290.576172 0)"/>
       <use xlink:href="#DejaVuSans-31" transform="translate(354.199219 0)"/>
       <use xlink:href="#DejaVuSans-2d" transform="translate(417.822266 0)"/>
       <use xlink:href="#DejaVuSans-31" transform="translate(453.90625 0)"/>
       <use xlink:href="#DejaVuSans-35" transform="translate(517.529297 0)"/>
      </g>
     </g>
    </g>
    <g id="xtick_4">
     <g id="line2d_7">
      <path d="M 436.409964 428.747964 
L 436.409964 25.3575 
" clip-path="url(#p2bcd39f7cb)" style="fill: none; stroke: #b0b0b0; stroke-opacity: 0.3; stroke-width: 0.8; stroke-linecap: square"/>
     </g>
     <g id="line2d_8">
      <g>
       <use xlink:href="#m1a3a062500" x="436.409964" y="428.747964" style="stroke: #000000; stroke-width: 0.8"/>
      </g>
     </g>
     <g id="text_4">
      <!-- 2025-02-01 -->
      <g transform="translate(385.040513 471.386216) rotate(-30) scale(0.1 -0.1)">
       <use xlink:href="#DejaVuSans-32"/>
       <use xlink:href="#DejaVuSans-30" transform="translate(63.623047 0)"/>
       <use xlink:href="#DejaVuSans-32" transform="translate(127.246094 0)"/>
       <use xlink:href="#DejaVuSans-35" transform="translate(190.869141 0)"/>
       <use xlink:href="#DejaVuSans-2d" transform="translate(254.492188 0)"/>
       <use xlink:href="#DejaVuSans-30" transform="translate(290.576172 0)"/>
       <use xlink:href="#DejaVuSans-32" transform="translate(354.199219 0)"/>
       <use xlink:href="#DejaVuSans-2d" transform="translate(417.822266 0)"/>
       <use xlink:href="#DejaVuSans-30" transform="translate(453.90625 0)"/>
       <use xlink:href="#DejaVuSans-31" transform="translate(517.529297 0)"/>
      </g>
     </g>
    </g>
    <g id="xtick_5">
     <g id="line2d_9">
      <path d="M 539.065326 428.747964 
L 539.065326 25.3575 
" clip-path="url(#p2bcd39f7cb)" style="fill: none; stroke: #b0b0b0; stroke-opacity: 0.3; stroke-width: 0.8; stroke-linecap: square"/>
     </g>
     <g id="line2d_10">
      <g>
       <use xlink:href="#m1a3a062500" x="539.065326" y="428.747964" style="stroke: #000000; stroke-width: 0.8"/>
      </g>
     </g>
     <g id="text_5">
      <!-- 2025-02-15 -->
      <g transform="translate(487.695874 471.386216) rotate(-30) scale(0.1 -0.1)">
       <use xlink:href="#DejaVuSans-32"/>
       <use xlink:href="#DejaVuSans-30" transform="translate(63.623047 0)"/>
       <use xlink:href="#DejaVuSans-32" transform="translate(127.246094 0)"/>
       <use xlink:href="#DejaVuSans-35" transform="translate(190.869141 0)"/>
       <use xlink:href="#DejaVuSans-2d" transform="translate(254.492188 0)"/>
       <use xlink:href="#DejaVuSans-30" transform="translate(290.576172 0)"/>
       <use xlink:href="#DejaVuSans-32" transform="translate(354.199219 0)"/>
       <use xlink:href="#DejaVuSans-2d" transform="translate(417.822266 0)"/>
       <use xlink:href="#DejaVuSans-31" transform="translate(453.90625 0)"/>
       <use xlink:href="#DejaVuSans-35" transform="translate(517.529297 0)"/>
      </g>
     </g>
    </g>
    <g id="xtick_6">
     <g id="line2d_11">
      <path d="M 641.720687 428.747964 
L 641.720687 25.3575 
" clip-path="url(#p2bcd39f7cb)" style="fill: none; stroke: #b0b0b0; stroke-opacity: 0.3; stroke-width: 0.8; stroke-linecap: square"/>
     </g>
     <g id="line2d_12">
      <g>
       <use xlink:href="#m1a3a062500" x="641.720687" y="428.747964" style="stroke: #000000; stroke-width: 0.8"/>
      </g>
     </g>
     <g id="text_6">
      <!-- 2025-03-01 -->
      <g transform="translate(590.351236 471.386216) rotate(-30) scale(0.1 -0.1)">
       <defs>
        <path id="DejaVuSans-33" d="M 2597 2516 
Q 3050 2419 3304 2112 
Q 3559 1806 3559 1356 
Q 3559 666 3084 287 
Q 2609 -91 1734 -91 
Q 1441 -91 1130 -33 
Q 819 25 488 141 
L 488 750 
Q 750 597 1062 519 
Q 1375 441 1716 441 
Q 2309 441 2620 675 
Q 2931 909 2931 1356 
Q 2931 1769 2642 2001 
Q 2353 2234 1838 2234 
L 1294 2234 
L 1294 2753 
L 1863 2753 
Q 2328 2753 2575 2939 
Q 2822 3125 2822 3475 
Q 2822 3834 2567 4026 
Q 2313 4219 1838 4219 
Q 1578 4219 1281 4162 
Q 984 4106 628 3988 
L 628 4550 
Q 988 4650 1302 4700 
Q 1616 4750 1894 4750 
Q 2613 4750 3031 4423 
Q 3450 4097 3450 3541 
Q 3450 3153 3228 2886 
Q 3006 2619 2597 2516 
z
" transform="scale(0.015625)"/>
       </defs>
       <use xlink:href="#DejaVuSans-32"/>
       <use xlink:href="#DejaVuSans-30" transform="translate(63.623047 0)"/>
       <use xlink:href="#DejaVuSans-32" transform="translate(127.246094 0)"/>
       <use xlink:href="#DejaVuSans-35" transform="translate(190.869141 0)"/>
       <use xlink:href="#DejaVuSans-2d" transform="translate(254.492188 0)"/>
       <use xlink:href="#DejaVuSans-30" transform="translate(290.576172 0)"/>
       <use xlink:href="#DejaVuSans-33" transform="translate(354.199219 0)"/>
       <use xlink:href="#DejaVuSans-2d" transform="translate(417.822266 0)"/>
       <use xlink:href="#DejaVuSans-30" transform="translate(453.90625 0)"/>
       <use xlink:href="#DejaVuSans-31" transform="translate(517.529297 0)"/>
      </g>
     </g>
    </g>
    <g id="xtick_7">
     <g id="line2d_13">
      <path d="M 744.070527 428.747964 
L 744.070527 25.3575 
" clip-path="url(#p2bcd39f7cb)" style="fill: none; stroke: #b0b0b0; stroke-opacity: 0.3; stroke-width: 0.8; stroke-linecap: square"/>
     </g>
     <g id="line2d_14">
      <g>
       <use xlink:href="#m1a3a062500" x="744.070527" y="428.747964" style="stroke: #000000; stroke-width: 0.8"/>
      </g>
     </g>
     <g id="text_7">
      <!-- 2025-03-15 -->
      <g transform="translate(692.701075 471.386216) rotate(-30) scale(0.1 -0.1)">
       <use xlink:href="#DejaVuSans-32"/>
       <use xlink:href="#DejaVuSans-30" transform="translate(63.623047 0)"/>
       <use xlink:href="#DejaVuSans-32" transform="translate(127.246094 0)"/>
       <use xlink:href="#DejaVuSans-35" transform="translate(190.869141 0)"/>
       <use xlink:href="#DejaVuSans-2d" transform="translate(254.492188 0)"/>
       <use xlink:href="#DejaVuSans-30" transform="translate(290.576172 0)"/>
       <use xlink:href="#DejaVuSans-33" transform="translate(354.199219 0)"/>
       <use xlink:href="#DejaVuSans-2d" transform="translate(417.822266 0)"/>
       <use xlink:href="#DejaVuSans-31" transform="translate(453.90625 0)"/>
       <use xlink:href="#DejaVuSans-35" transform="translate(517.529297 0)"/>
      </g>
     </g>
    </g>
    <g id="xtick_8">
     <g id="line2d_15">
      <path d="M 868.723466 428.747964 
L 868.723466 25.3575 
" clip-path="url(#p2bcd39f7cb)" style="fill: none; stroke: #b0b0b0; stroke-opacity: 0.3; stroke-width: 0.8; stroke-linecap: square"/>
     </g>
     <g id="line2d_16">
      <g>
       <use xlink:href="#m1a3a062500" x="868.723466" y="428.747964" style="stroke: #000000; stroke-width: 0.8"/>
      </g>
     </g>
     <g id="text_8">
      <!-- 2025-04-01 -->
      <g transform="translate(817.354015 471.386216) rotate(-30) scale(0.1 -0.1)">
       <use xlink:href="#DejaVuSans-32"/>
       <use xlink:href="#DejaVuSans-30" transform="translate(63.623047 0)"/>
       <use xlink:href="#DejaVuSans-32" transform="translate(127.246094 0)"/>
       <use xlink:href="#DejaVuSans-35" transform="translate(190.869141 0)"/>
       <use xlink:href="#DejaVuSans-2d" transform="translate(254.492188 0)"/>
       <use xlink:href="#DejaVuSans-30" transform="translate(290.576172 0)"/>
       <use xlink:href="#DejaVuSans-34" transform="translate(354.199219 0)"/>
       <use xlink:href="#DejaVuSans-2d" transform="translate(417.822266 0)"/>
       <use xlink:href="#DejaVuSans-30" transform="translate(453.90625 0)"/>
       <use xlink:href="#DejaVuSans-31" transform="translate(517.529297 0)"/>
      </g>
     </g>
    </g>
    <g id="xtick_9">
     <g id="line2d_17">
      <path d="M 971.378827 428.747964 
L 971.378827 25.3575 
" clip-path="url(#p2bcd39f7cb)" style="fill: none; stroke: #b0b0b0; stroke-opacity: 0.3; stroke-width: 0.8; stroke-linecap: square"/>
     </g>
     <g id="line2d_18">
      <g>
       <use xlink:href="#m1a3a062500" x="971.378827" y="428.747964" style="stroke: #000000; stroke-width: 0.8"/>
      </g>
     </g>
     <g id="text_9">
      <!-- 2025-04-15 -->
      <g transform="translate(920.009376 471.386216) rotate(-30) scale(0.1 -0.1)">
       <use xlink:href="#DejaVuSans-32"/>
       <use xlink:href="#DejaVuSans-30" transform="translate(63.623047 0)"/>
       <use xlink:href="#DejaVuSans-32" transform="translate(127.246094 0)"/>
       <use xlink:href="#DejaVuSans-35" transform="translate(190.869141 0)"/>
       <use xlink:href="#DejaVuSans-2d" transform="translate(254.492188 0)"/>
       <use xlink:href="#DejaVuSans-30" transform="translate(290.576172 0)"/>
       <use xlink:href="#DejaVuSans-34" transform="translate(354.199219 0)"/>
       <use xlink:href="#DejaVuSans-2d" transform="translate(417.822266 0)"/>
       <use xlink:href="#DejaVuSans-31" transform="translate(453.90625 0)"/>
       <use xlink:href="#DejaVuSans-35" transform="translate(517.529297 0)"/>
      </g>
     </g>
    </g>
    <g id="text_10">
     <!-- Date -->
     <g transform="translate(506.240312 486.305404) scale(0.12 -0.12)">
      <defs>
       <path id="DejaVuSans-44" d="M 1259 4147 
L 1259 519 
L 2022 519 
Q 2988 519 3436 956 
Q 3884 1394 3884 2338 
Q 3884 3275 3436 3711 
Q 2988 4147 2022 4147 
L 1259 4147 
z
M 628 4666 
L 1925 4666 
Q 3281 4666 3915 4102 
Q 4550 3538 4550 2338 
Q 4550 1131 3912 565 
Q 3275 0 1925 0 
L 628 0 
L 628 4666 
z
" transform="scale(0.015625)"/>
       <path id="DejaVuSans-61" d="M 2194 1759 
Q 1497 1759 1228 1600 
Q 959 1441 959 1056 
Q 959 750 1161 570 
Q 1363 391 1709 391 
Q 2188 391 2477 730 
Q 2766 1069 2766 1631 
L 2766 1759 
L 2194 1759 
z
M 3341 1997 
L 3341 0 
L 2766 0 
L 2766 531 
Q 2569 213 2275 61 
Q 1981 -91 1556 -91 
Q 1019 -91 701 211 
Q 384 513 384 1019 
Q 384 1609 779 1909 
Q 1175 2209 1959 2209 
L 2766 2209 
L 2766 2266 
Q 2766 2663 2505 2880 
Q 2244 3097 1772 3097 
Q 1472 3097 1187 3025 
Q 903 2953 641 2809 
L 641 3341 
Q 956 3463 1253 3523 
Q 1550 3584 1831 3584 
Q 2591 3584 2966 3190 
Q 3341 2797 3341 1997 
z
" transform="scale(0.015625)"/>
       <path id="DejaVuSans-74" d="M 1172 4494 
L 1172 3500 
L 2356 3500 
L 2356 3053 
L 1172 3053 
L 1172 1153 
Q 1172 725 1289 603 
Q 1406 481 1766 481 
L 2356 481 
L 2356 0 
L 1766 0 
Q 1100 0 847 248 
Q 594 497 594 1153 
L 594 3053 
L 172 3053 
L 172 3500 
L 594 3500 
L 594 4494 
L 1172 4494 
z
" transform="scale(0.015625)"/>
       <path id="DejaVuSans-65" d="M 3597 1894 
L 3597 1613 
L 953 1613 
Q 991 1019 1311 708 
Q 1631 397 2203 397 
Q 2534 397 2845 478 
Q 3156 559 3463 722 
L 3463 178 
Q 3153 47 2828 -22 
Q 2503 -91 2169 -91 
Q 1331 -91 842 396 
Q 353 884 353 1716 
Q 353 2575 817 3079 
Q 1281 3584 2069 3584 
Q 2775 3584 3186 3129 
Q 3597 2675 3597 1894 
z
M 3022 2063 
Q 3016 2534 2758 2815 
Q 2500 3097 2075 3097 
Q 1594 3097 1305 2825 
Q 1016 2553 972 2059 
L 3022 2063 
z
" transform="scale(0.015625)"/>
      </defs>
      <use xlink:href="#DejaVuSans-44"/>
      <use xlink:href="#DejaVuSans-61" transform="translate(77.001953 0)"/>
      <use xlink:href="#DejaVuSans-74" transform="translate(138.28125 0)"/>
      <use xlink:href="#DejaVuSans-65" transform="translate(177.490234 0)"/>
     </g>
    </g>
   </g>
   <g id="matplotlib.axis_2">
    <g id="ytick_1">
     <g id="line2d_19">
      <path d="M 48.90125 399.28184 
L 992.26125 399.28184 
" clip-path="url(#p2bcd39f7cb)" style="fill: none; stroke: #b0b0b0; stroke-opacity: 0.3; stroke-width: 0.8; stroke-linecap: square"/>
     </g>
     <g id="line2d_20">
      <defs>
       <path id="m0337cf6c27" d="M 0 0 
L -3.5 0 
" style="stroke: #000000; stroke-width: 0.8"/>
      </defs>
      <g>
       <use xlink:href="#m0337cf6c27" x="48.90125" y="399.28184" style="stroke: #000000; stroke-width: 0.8"/>
      </g>
     </g>
     <g id="text_11">
      <!-- 160 -->
      <g transform="translate(22.81375 403.081059) scale(0.1 -0.1)">
       <defs>
        <path id="DejaVuSans-36" d="M 2113 2584 
Q 1688 2584 1439 2293 
Q 1191 2003 1191 1497 
Q 1191 994 1439 701 
Q 1688 409 2113 409 
Q 2538 409 2786 701 
Q 3034 994 3034 1497 
Q 3034 2003 2786 2293 
Q 2538 2584 2113 2584 
z
M 3366 4563 
L 3366 3988 
Q 3128 4100 2886 4159 
Q 2644 4219 2406 4219 
Q 1781 4219 1451 3797 
Q 1122 3375 1075 2522 
Q 1259 2794 1537 2939 
Q 1816 3084 2150 3084 
Q 2853 3084 3261 2657 
Q 3669 2231 3669 1497 
Q 3669 778 3244 343 
Q 2819 -91 2113 -91 
Q 1303 -91 875 529 
Q 447 1150 447 2328 
Q 447 3434 972 4092 
Q 1497 4750 2381 4750 
Q 2619 4750 2861 4703 
Q 3103 4656 3366 4563 
z
" transform="scale(0.015625)"/>
       </defs>
       <use xlink:href="#DejaVuSans-31"/>
       <use xlink:href="#DejaVuSans-36" transform="translate(63.623047 0)"/>
       <use xlink:href="#DejaVuSans-30" transform="translate(127.246094 0)"/>
      </g>
     </g>
    </g>
    <g id="ytick_2">
     <g id="line2d_21">
      <path d="M 48.90125 327.253361 
L 992.26125 327.253361 
" clip-path="url(#p2bcd39f7cb)" style="fill: none; stroke: #b0b0b0; stroke-opacity: 0.3; stroke-width: 0.8; stroke-linecap: square"/>
     </g>
     <g id="line2d_22">
      <g>
       <use xlink:href="#m0337cf6c27" x="48.90125" y="327.253361" style="stroke: #000000; stroke-width: 0.8"/>
      </g>
     </g>
     <g id="text_12">
      <!-- 180 -->
      <g transform="translate(22.81375 331.05258) scale(0.1 -0.1)">
       <defs>
        <path id="DejaVuSans-38" d="M 2034 2216 
Q 1584 2216 1326 1975 
Q 1069 1734 1069 1313 
Q 1069 891 1326 650 
Q 1584 409 2034 409 
Q 2484 409 2743 651 
Q 3003 894 3003 1313 
Q 3003 1734 2745 1975 
Q 2488 2216 2034 2216 
z
M 1403 2484 
Q 997 2584 770 2862 
Q 544 3141 544 3541 
Q 544 4100 942 4425 
Q 1341 4750 2034 4750 
Q 2731 4750 3128 4425 
Q 3525 4100 3525 3541 
Q 3525 3141 3298 2862 
Q 3072 2584 2669 2484 
Q 3125 2378 3379 2068 
Q 3634 1759 3634 1313 
Q 3634 634 3220 271 
Q 2806 -91 2034 -91 
Q 1263 -91 848 271 
Q 434 634 434 1313 
Q 434 1759 690 2068 
Q 947 2378 1403 2484 
z
M 1172 3481 
Q 1172 3119 1398 2916 
Q 1625 2713 2034 2713 
Q 2441 2713 2670 2916 
Q 2900 3119 2900 3481 
Q 2900 3844 2670 4047 
Q 2441 4250 2034 4250 
Q 1625 4250 1398 4047 
Q 1172 3844 1172 3481 
z
" transform="scale(0.015625)"/>
       </defs>
       <use xlink:href="#DejaVuSans-31"/>
       <use xlink:href="#DejaVuSans-38" transform="translate(63.623047 0)"/>
       <use xlink:href="#DejaVuSans-30" transform="translate(127.246094 0)"/>
      </g>
     </g>
    </g>
    <g id="ytick_3">
     <g id="line2d_23">
      <path d="M 48.90125 255.224882 
L 992.26125 255.224882 
" clip-path="url(#p2bcd39f7cb)" style="fill: none; stroke: #b0b0b0; stroke-opacity: 0.3; stroke-width: 0.8; stroke-linecap: square"/>
     </g>
     <g id="line2d_24">
      <g>
       <use xlink:href="#m0337cf6c27" x="48.90125" y="255.224882" style="stroke: #000000; stroke-width: 0.8"/>
      </g>
     </g>
     <g id="text_13">
      <!-- 200 -->
      <g transform="translate(22.81375 259.024101) scale(0.1 -0.1)">
       <use xlink:href="#DejaVuSans-32"/>
       <use xlink:href="#DejaVuSans-30" transform="translate(63.623047 0)"/>
       <use xlink:href="#DejaVuSans-30" transform="translate(127.246094 0)"/>
      </g>
     </g>
    </g>
    <g id="ytick_4">
     <g id="line2d_25">
      <path d="M 48.90125 183.196403 
L 992.26125 183.196403 
" clip-path="url(#p2bcd39f7cb)" style="fill: none; stroke: #b0b0b0; stroke-opacity: 0.3; stroke-width: 0.8; stroke-linecap: square"/>
     </g>
     <g id="line2d_26">
      <g>
       <use xlink:href="#m0337cf6c27" x="48.90125" y="183.196403" style="stroke: #000000; stroke-width: 0.8"/>
      </g>
     </g>
     <g id="text_14">
      <!-- 220 -->
      <g transform="translate(22.81375 186.995622) scale(0.1 -0.1)">
       <use xlink:href="#DejaVuSans-32"/>
       <use xlink:href="#DejaVuSans-32" transform="translate(63.623047 0)"/>
       <use xlink:href="#DejaVuSans-30" transform="translate(127.246094 0)"/>
      </g>
     </g>
    </g>
    <g id="ytick_5">
     <g id="line2d_27">
      <path d="M 48.90125 111.167924 
L 992.26125 111.167924 
" clip-path="url(#p2bcd39f7cb)" style="fill: none; stroke: #b0b0b0; stroke-opacity: 0.3; stroke-width: 0.8; stroke-linecap: square"/>
     </g>
     <g id="line2d_28">
      <g>
       <use xlink:href="#m0337cf6c27" x="48.90125" y="111.167924" style="stroke: #000000; stroke-width: 0.8"/>
      </g>
     </g>
     <g id="text_15">
      <!-- 240 -->
      <g transform="translate(22.81375 114.967142) scale(0.1 -0.1)">
       <use xlink:href="#DejaVuSans-32"/>
       <use xlink:href="#DejaVuSans-34" transform="translate(63.623047 0)"/>
       <use xlink:href="#DejaVuSans-30" transform="translate(127.246094 0)"/>
      </g>
     </g>
    </g>
    <g id="ytick_6">
     <g id="line2d_29">
      <path d="M 48.90125 39.139445 
L 992.26125 39.139445 
" clip-path="url(#p2bcd39f7cb)" style="fill: none; stroke: #b0b0b0; stroke-opacity: 0.3; stroke-width: 0.8; stroke-linecap: square"/>
     </g>
     <g id="line2d_30">
      <g>
       <use xlink:href="#m0337cf6c27" x="48.90125" y="39.139445" style="stroke: #000000; stroke-width: 0.8"/>
      </g>
     </g>
     <g id="text_16">
      <!-- 260 -->
      <g transform="translate(22.81375 42.938663) scale(0.1 -0.1)">
       <use xlink:href="#DejaVuSans-32"/>
       <use xlink:href="#DejaVuSans-36" transform="translate(63.623047 0)"/>
       <use xlink:href="#DejaVuSans-30" transform="translate(127.246094 0)"/>
      </g>
     </g>
    </g>
    <g id="text_17">
     <!-- Price ($) -->
     <g transform="translate(16.318125 252.096169) rotate(-90) scale(0.12 -0.12)">
      <defs>
       <path id="DejaVuSans-50" d="M 1259 4147 
L 1259 2394 
L 2053 2394 
Q 2494 2394 2734 2622 
Q 2975 2850 2975 3272 
Q 2975 3691 2734 3919 
Q 2494 4147 2053 4147 
L 1259 4147 
z
M 628 4666 
L 2053 4666 
Q 2838 4666 3239 4311 
Q 3641 3956 3641 3272 
Q 3641 2581 3239 2228 
Q 2838 1875 2053 1875 
L 1259 1875 
L 1259 0 
L 628 0 
L 628 4666 
z
" transform="scale(0.015625)"/>
       <path id="DejaVuSans-72" d="M 2631 2963 
Q 2534 3019 2420 3045 
Q 2306 3072 2169 3072 
Q 1681 3072 1420 2755 
Q 1159 2438 1159 1844 
L 1159 0 
L 581 0 
L 581 3500 
L 1159 3500 
L 1159 2956 
Q 1341 3275 1631 3429 
Q 1922 3584 2338 3584 
Q 2397 3584 2469 3576 
Q 2541 3569 2628 3553 
L 2631 2963 
z
" transform="scale(0.015625)"/>
       <path id="DejaVuSans-69" d="M 603 3500 
L 1178 3500 
L 1178 0 
L 603 0 
L 603 3500 
z
M 603 4863 
L 1178 4863 
L 1178 4134 
L 603 4134 
L 603 4863 
z
" transform="scale(0.015625)"/>
       <path id="DejaVuSans-63" d="M 3122 3366 
L 3122 2828 
Q 2878 2963 2633 3030 
Q 2388 3097 2138 3097 
Q 1578 3097 1268 2742 
Q 959 2388 959 1747 
Q 959 1106 1268 751 
Q 1578 397 2138 397 
Q 2388 397 2633 464 
Q 2878 531 3122 666 
L 3122 134 
Q 2881 22 2623 -34 
Q 2366 -91 2075 -91 
Q 1284 -91 818 406 
Q 353 903 353 1747 
Q 353 2603 823 3093 
Q 1294 3584 2113 3584 
Q 2378 3584 2631 3529 
Q 2884 3475 3122 3366 
z
" transform="scale(0.015625)"/>
       <path id="DejaVuSans-20" transform="scale(0.015625)"/>
       <path id="DejaVuSans-28" d="M 1984 4856 
Q 1566 4138 1362 3434 
Q 1159 2731 1159 2009 
Q 1159 1288 1364 580 
Q 1569 -128 1984 -844 
L 1484 -844 
Q 1016 -109 783 600 
Q 550 1309 550 2009 
Q 550 2706 781 3412 
Q 1013 4119 1484 4856 
L 1984 4856 
z
" transform="scale(0.015625)"/>
       <path id="DejaVuSans-24" d="M 2163 -941 
L 1850 -941 
L 1847 0 
Q 1519 6 1191 76 
Q 863 147 531 288 
L 531 850 
Q 850 650 1176 548 
Q 1503 447 1850 444 
L 1850 1869 
Q 1159 1981 845 2250 
Q 531 2519 531 2988 
Q 531 3497 872 3790 
Q 1213 4084 1850 4128 
L 1850 4863 
L 2163 4863 
L 2163 4138 
Q 2453 4125 2725 4076 
Q 2997 4028 3256 3944 
L 3256 3397 
Q 2997 3528 2723 3600 
Q 2450 3672 2163 3684 
L 2163 2350 
Q 2872 2241 3206 1959 
Q 3541 1678 3541 1191 
Q 3541 663 3186 358 
Q 2831 53 2163 6 
L 2163 -941 
z
M 1850 2406 
L 1850 3688 
Q 1488 3647 1297 3481 
Q 1106 3316 1106 3041 
Q 1106 2772 1282 2622 
Q 1459 2472 1850 2406 
z
M 2163 1806 
L 2163 453 
Q 2559 506 2761 678 
Q 2963 850 2963 1131 
Q 2963 1406 2770 1568 
Q 2578 1731 2163 1806 
z
" transform="scale(0.015625)"/>
       <path id="DejaVuSans-29" d="M 513 4856 
L 1013 4856 
Q 1481 4119 1714 3412 
Q 1947 2706 1947 2009 
Q 1947 1309 1714 600 
Q 1481 -109 1013 -844 
L 513 -844 
Q 928 -128 1133 580 
Q 1338 1288 1338 2009 
Q 1338 2731 1133 3434 
Q 928 4138 513 4856 
z
" transform="scale(0.015625)"/>
      </defs>
      <use xlink:href="#DejaVuSans-50"/>
      <use xlink:href="#DejaVuSans-72" transform="translate(58.552734 0)"/>
      <use xlink:href="#DejaVuSans-69" transform="translate(99.666016 0)"/>
      <use xlink:href="#DejaVuSans-63" transform="translate(127.449219 0)"/>
      <use xlink:href="#DejaVuSans-65" transform="translate(182.429688 0)"/>
      <use xlink:href="#DejaVuSans-20" transform="translate(243.953125 0)"/>
      <use xlink:href="#DejaVuSans-28" transform="translate(275.740234 0)"/>
      <use xlink:href="#DejaVuSans-24" transform="translate(314.753906 0)"/>
      <use xlink:href="#DejaVuSans-29" transform="translate(378.376953 0)"/>
     </g>
    </g>
   </g>
   <g id="FillBetweenPolyCollection_1">
    <defs>
     <path id="m9f59a20333" d="M 736.738001 -363.037258 
L 736.738001 -209.847094 
L 744.070527 -200.847346 
L 751.403053 -190.015609 
L 758.735578 -191.004324 
L 766.068104 -185.465491 
L 773.40063 -175.670242 
L 780.733156 -176.099301 
L 788.065682 -177.854612 
L 795.398208 -170.269619 
L 802.730733 -166.021928 
L 810.063259 -165.142934 
L 817.395785 -160.106813 
L 824.728311 -152.771553 
L 832.060837 -153.313576 
L 839.393363 -148.48695 
L 846.725888 -141.6104 
L 854.058414 -139.850772 
L 861.39094 -136.805706 
L 868.723466 -133.092062 
L 876.055992 -128.281779 
L 883.388518 -122.015193 
L 890.721043 -116.872088 
L 898.053569 -114.909171 
L 905.386095 -108.969235 
L 912.718621 -106.352367 
L 920.051147 -104.786357 
L 927.383673 -95.799375 
L 934.716198 -90.713667 
L 942.048724 -85.588995 
L 949.38125 -86.423848 
L 949.38125 -212.186624 
L 949.38125 -212.186624 
L 942.048724 -211.166248 
L 934.716198 -217.429737 
L 927.383673 -223.645601 
L 920.051147 -234.629691 
L 912.718621 -236.543702 
L 905.386095 -239.742097 
L 898.053569 -247.002019 
L 890.721043 -249.40114 
L 883.388518 -255.687157 
L 876.055992 -263.346317 
L 868.723466 -269.225553 
L 861.39094 -273.76445 
L 854.058414 -277.486198 
L 846.725888 -279.636855 
L 839.393363 -288.041527 
L 832.060837 -293.940736 
L 824.728311 -293.278264 
L 817.395785 -302.243581 
L 810.063259 -308.39884 
L 802.730733 -309.473167 
L 795.398208 -314.664789 
L 788.065682 -323.935336 
L 780.733156 -321.789956 
L 773.40063 -321.26555 
L 766.068104 -333.237521 
L 758.735578 -340.007206 
L 751.403053 -338.798776 
L 744.070527 -352.037566 
L 736.738001 -363.037258 
z
" style="stroke: #ff0000; stroke-opacity: 0.1"/>
    </defs>
    <g clip-path="url(#p2bcd39f7cb)">
     <use xlink:href="#m9f59a20333" x="0" y="496.001029" style="fill: #ff0000; fill-opacity: 0.1; stroke: #ff0000; stroke-opacity: 0.1"/>
    </g>
   </g>
   <g id="patch_3">
    <path d="M 48.90125 428.747964 
L 48.90125 25.3575 
" style="fill: none; stroke: #000000; stroke-width: 0.8; stroke-linejoin: miter; stroke-linecap: square"/>
   </g>
   <g id="patch_4">
    <path d="M 992.26125 428.747964 
L 992.26125 25.3575 
" style="fill: none; stroke: #000000; stroke-width: 0.8; stroke-linejoin: miter; stroke-linecap: square"/>
   </g>
   <g id="patch_5">
    <path d="M 48.90125 428.747964 
L 992.26125 428.747964 
" style="fill: none; stroke: #000000; stroke-width: 0.8; stroke-linejoin: miter; stroke-linecap: square"/>
   </g>
   <g id="patch_6">
    <path d="M 48.90125 25.3575 
L 992.26125 25.3575 
" style="fill: none; stroke: #000000; stroke-width: 0.8; stroke-linejoin: miter; stroke-linecap: square"/>
   </g>
   <g id="line2d_31">
    <path d="M 91.78125 72.40118 
L 99.113776 63.623368 
L 106.446302 83.157587 
L 113.778827 76.898014 
L 121.111353 59.989852 
L 143.108931 57.183823 
L 150.441457 46.643217 
L 165.106508 43.69343 
L 172.439034 56.03266 
L 194.436612 68.228076 
L 201.769137 74.631572 
L 216.434189 98.266906 
L 223.766715 100.0297 
L 245.764292 94.129852 
L 253.096818 104.166755 
L 260.429344 102.40407 
L 275.094396 123.449232 
L 297.091973 132.263038 
L 304.424499 136.292219 
L 311.757025 119.779831 
L 319.089551 154.35149 
L 326.422077 148.16385 
L 355.75218 174.569273 
L 363.084706 170.288296 
L 370.417231 170.899817 
L 377.749757 174.065626 
L 399.747335 148.595564 
L 407.079861 118.376816 
L 414.412386 114.419569 
L 421.744912 120.787126 
L 429.077438 126.507057 
L 451.075016 155.250856 
L 458.407541 138.018964 
L 465.740067 139.206121 
L 473.072593 136.508021 
L 480.405119 156.617876 
L 502.402696 155.645531 
L 509.735222 137.74645 
L 517.067748 122.440398 
L 524.400274 105.657749 
L 531.7328 94.601351 
L 561.062903 95.069554 
L 568.395429 93.629007 
L 575.727955 90.171615 
L 583.06048 91.18001 
L 605.058058 85.597792 
L 612.390584 85.813923 
L 619.72311 109.871409 
L 627.055635 120.891757 
L 634.388161 104.541317 
L 656.385739 118.262733 
L 663.718265 125.825746 
L 671.05079 126.50997 
L 678.383316 127.986567 
L 685.715842 114.517222 
L 707.407898 156.257767 
L 714.740423 180.17122 
L 722.072949 194.072719 
L 729.405475 209.558853 
" clip-path="url(#p2bcd39f7cb)" style="fill: none; stroke: #0000ff; stroke-width: 1.5; stroke-linecap: square"/>
   </g>
   <g id="text_18">
    <g id="patch_7">
     <path d="M 67.76845 417.074066 
L 254.662825 417.074066 
Q 260.662825 417.074066 260.662825 411.074066 
L 260.662825 399.460316 
Q 260.662825 393.460316 254.662825 393.460316 
L 67.76845 393.460316 
Q 61.76845 393.460316 61.76845 399.460316 
L 61.76845 411.074066 
Q 61.76845 417.074066 67.76845 417.074066 
z
" style="fill: #ffffff; opacity: 0.8; stroke: #000000; stroke-linejoin: miter"/>
    </g>
    <!-- Sentiment Score: 0.10 (Bullish) -->
    <g transform="translate(67.76845 408.578441) scale(0.12 -0.12)">
     <defs>
      <path id="DejaVuSans-53" d="M 3425 4513 
L 3425 3897 
Q 3066 4069 2747 4153 
Q 2428 4238 2131 4238 
Q 1616 4238 1336 4038 
Q 1056 3838 1056 3469 
Q 1056 3159 1242 3001 
Q 1428 2844 1947 2747 
L 2328 2669 
Q 3034 2534 3370 2195 
Q 3706 1856 3706 1288 
Q 3706 609 3251 259 
Q 2797 -91 1919 -91 
Q 1588 -91 1214 -16 
Q 841 59 441 206 
L 441 856 
Q 825 641 1194 531 
Q 1563 422 1919 422 
Q 2459 422 2753 634 
Q 3047 847 3047 1241 
Q 3047 1584 2836 1778 
Q 2625 1972 2144 2069 
L 1759 2144 
Q 1053 2284 737 2584 
Q 422 2884 422 3419 
Q 422 4038 858 4394 
Q 1294 4750 2059 4750 
Q 2388 4750 2728 4690 
Q 3069 4631 3425 4513 
z
" transform="scale(0.015625)"/>
      <path id="DejaVuSans-6e" d="M 3513 2113 
L 3513 0 
L 2938 0 
L 2938 2094 
Q 2938 2591 2744 2837 
Q 2550 3084 2163 3084 
Q 1697 3084 1428 2787 
Q 1159 2491 1159 1978 
L 1159 0 
L 581 0 
L 581 3500 
L 1159 3500 
L 1159 2956 
Q 1366 3272 1645 3428 
Q 1925 3584 2291 3584 
Q 2894 3584 3203 3211 
Q 3513 2838 3513 2113 
z
" transform="scale(0.015625)"/>
      <path id="DejaVuSans-6d" d="M 3328 2828 
Q 3544 3216 3844 3400 
Q 4144 3584 4550 3584 
Q 5097 3584 5394 3201 
Q 5691 2819 5691 2113 
L 5691 0 
L 5113 0 
L 5113 2094 
Q 5113 2597 4934 2840 
Q 4756 3084 4391 3084 
Q 3944 3084 3684 2787 
Q 3425 2491 3425 1978 
L 3425 0 
L 2847 0 
L 2847 2094 
Q 2847 2600 2669 2842 
Q 2491 3084 2119 3084 
Q 1678 3084 1418 2786 
Q 1159 2488 1159 1978 
L 1159 0 
L 581 0 
L 581 3500 
L 1159 3500 
L 1159 2956 
Q 1356 3278 1631 3431 
Q 1906 3584 2284 3584 
Q 2666 3584 2933 3390 
Q 3200 3197 3328 2828 
z
" transform="scale(0.015625)"/>
      <path id="DejaVuSans-6f" d="M 1959 3097 
Q 1497 3097 1228 2736 
Q 959 2375 959 1747 
Q 959 1119 1226 758 
Q 1494 397 1959 397 
Q 2419 397 2687 759 
Q 2956 1122 2956 1747 
Q 2956 2369 2687 2733 
Q 2419 3097 1959 3097 
z
M 1959 3584 
Q 2709 3584 3137 3096 
Q 3566 2609 3566 1747 
Q 3566 888 3137 398 
Q 2709 -91 1959 -91 
Q 1206 -91 779 398 
Q 353 888 353 1747 
Q 353 2609 779 3096 
Q 1206 3584 1959 3584 
z
" transform="scale(0.015625)"/>
      <path id="DejaVuSans-3a" d="M 750 794 
L 1409 794 
L 1409 0 
L 750 0 
L 750 794 
z
M 750 3309 
L 1409 3309 
L 1409 2516 
L 750 2516 
L 750 3309 
z
" transform="scale(0.015625)"/>
      <path id="DejaVuSans-2e" d="M 684 794 
L 1344 794 
L 1344 0 
L 684 0 
L 684 794 
z
" transform="scale(0.015625)"/>
      <path id="DejaVuSans-42" d="M 1259 2228 
L 1259 519 
L 2272 519 
Q 2781 519 3026 730 
Q 3272 941 3272 1375 
Q 3272 1813 3026 2020 
Q 2781 2228 2272 2228 
L 1259 2228 
z
M 1259 4147 
L 1259 2741 
L 2194 2741 
Q 2656 2741 2882 2914 
Q 3109 3088 3109 3444 
Q 3109 3797 2882 3972 
Q 2656 4147 2194 4147 
L 1259 4147 
z
M 628 4666 
L 2241 4666 
Q 2963 4666 3353 4366 
Q 3744 4066 3744 3513 
Q 3744 3084 3544 2831 
Q 3344 2578 2956 2516 
Q 3422 2416 3680 2098 
Q 3938 1781 3938 1306 
Q 3938 681 3513 340 
Q 3088 0 2303 0 
L 628 0 
L 628 4666 
z
" transform="scale(0.015625)"/>
      <path id="DejaVuSans-75" d="M 544 1381 
L 544 3500 
L 1119 3500 
L 1119 1403 
Q 1119 906 1312 657 
Q 1506 409 1894 409 
Q 2359 409 2629 706 
Q 2900 1003 2900 1516 
L 2900 3500 
L 3475 3500 
L 3475 0 
L 2900 0 
L 2900 538 
Q 2691 219 2414 64 
Q 2138 -91 1772 -91 
Q 1169 -91 856 284 
Q 544 659 544 1381 
z
M 1991 3584 
L 1991 3584 
z
" transform="scale(0.015625)"/>
      <path id="DejaVuSans-6c" d="M 603 4863 
L 1178 4863 
L 1178 0 
L 603 0 
L 603 4863 
z
" transform="scale(0.015625)"/>
      <path id="DejaVuSans-73" d="M 2834 3397 
L 2834 2853 
Q 2591 2978 2328 3040 
Q 2066 3103 1784 3103 
Q 1356 3103 1142 2972 
Q 928 2841 928 2578 
Q 928 2378 1081 2264 
Q 1234 2150 1697 2047 
L 1894 2003 
Q 2506 1872 2764 1633 
Q 3022 1394 3022 966 
Q 3022 478 2636 193 
Q 2250 -91 1575 -91 
Q 1294 -91 989 -36 
Q 684 19 347 128 
L 347 722 
Q 666 556 975 473 
Q 1284 391 1588 391 
Q 1994 391 2212 530 
Q 2431 669 2431 922 
Q 2431 1156 2273 1281 
Q 2116 1406 1581 1522 
L 1381 1569 
Q 847 1681 609 1914 
Q 372 2147 372 2553 
Q 372 3047 722 3315 
Q 1072 3584 1716 3584 
Q 2034 3584 2315 3537 
Q 2597 3491 2834 3397 
z
" transform="scale(0.015625)"/>
      <path id="DejaVuSans-68" d="M 3513 2113 
L 3513 0 
L 2938 0 
L 2938 2094 
Q 2938 2591 2744 2837 
Q 2550 3084 2163 3084 
Q 1697 3084 1428 2787 
Q 1159 2491 1159 1978 
L 1159 0 
L 581 0 
L 581 4863 
L 1159 4863 
L 1159 2956 
Q 1366 3272 1645 3428 
Q 1925 3584 2291 3584 
Q 2894 3584 3203 3211 
Q 3513 2838 3513 2113 
z
" transform="scale(0.015625)"/>
     </defs>
     <use xlink:href="#DejaVuSans-53"/>
     <use xlink:href="#DejaVuSans-65" transform="translate(63.476562 0)"/>
     <use xlink:href="#DejaVuSans-6e" transform="translate(125 0)"/>
     <use xlink:href="#DejaVuSans-74" transform="translate(188.378906 0)"/>
     <use xlink:href="#DejaVuSans-69" transform="translate(227.587891 0)"/>
     <use xlink:href="#DejaVuSans-6d" transform="translate(255.371094 0)"/>
     <use xlink:href="#DejaVuSans-65" transform="translate(352.783203 0)"/>
     <use xlink:href="#DejaVuSans-6e" transform="translate(414.306641 0)"/>
     <use xlink:href="#DejaVuSans-74" transform="translate(477.685547 0)"/>
     <use xlink:href="#DejaVuSans-20" transform="translate(516.894531 0)"/>
     <use xlink:href="#DejaVuSans-53" transform="translate(548.681641 0)"/>
     <use xlink:href="#DejaVuSans-63" transform="translate(612.158203 0)"/>
     <use xlink:href="#DejaVuSans-6f" transform="translate(667.138672 0)"/>
     <use xlink:href="#DejaVuSans-72" transform="translate(728.320312 0)"/>
     <use xlink:href="#DejaVuSans-65" transform="translate(767.183594 0)"/>
     <use xlink:href="#DejaVuSans-3a" transform="translate(828.707031 0)"/>
     <use xlink:href="#DejaVuSans-20" transform="translate(862.398438 0)"/>
     <use xlink:href="#DejaVuSans-30" transform="translate(894.185547 0)"/>
     <use xlink:href="#DejaVuSans-2e" transform="translate(957.808594 0)"/>
     <use xlink:href="#DejaVuSans-31" transform="translate(989.595703 0)"/>
     <use xlink:href="#DejaVuSans-30" transform="translate(1053.21875 0)"/>
     <use xlink:href="#DejaVuSans-20" transform="translate(1116.841797 0)"/>
     <use xlink:href="#DejaVuSans-28" transform="translate(1148.628906 0)"/>
     <use xlink:href="#DejaVuSans-42" transform="translate(1187.642578 0)"/>
     <use xlink:href="#DejaVuSans-75" transform="translate(1256.246094 0)"/>
     <use xlink:href="#DejaVuSans-6c" transform="translate(1319.625 0)"/>
     <use xlink:href="#DejaVuSans-6c" transform="translate(1347.408203 0)"/>
     <use xlink:href="#DejaVuSans-69" transform="translate(1375.191406 0)"/>
     <use xlink:href="#DejaVuSans-73" transform="translate(1402.974609 0)"/>
     <use xlink:href="#DejaVuSans-68" transform="translate(1455.074219 0)"/>
     <use xlink:href="#DejaVuSans-29" transform="translate(1518.453125 0)"/>
    </g>
   </g>
   <g id="text_19">
    <g id="patch_8">
     <path d="M 67.76845 388.836733 
L 234.679075 388.836733 
Q 240.679075 388.836733 240.679075 382.836733 
L 240.679075 371.222983 
Q 240.679075 365.222983 234.679075 365.222983 
L 67.76845 365.222983 
Q 61.76845 365.222983 61.76845 371.222983 
L 61.76845 382.836733 
Q 61.76845 388.836733 67.76845 388.836733 
z
" style="fill: #ffffff; opacity: 0.8; stroke: #000000; stroke-linejoin: miter"/>
    </g>
    <!-- Investment Score: 60.0/100 -->
    <g transform="translate(67.76845 380.341108) scale(0.12 -0.12)">
     <defs>
      <path id="DejaVuSans-49" d="M 628 4666 
L 1259 4666 
L 1259 0 
L 628 0 
L 628 4666 
z
" transform="scale(0.015625)"/>
      <path id="DejaVuSans-76" d="M 191 3500 
L 800 3500 
L 1894 563 
L 2988 3500 
L 3597 3500 
L 2284 0 
L 1503 0 
L 191 3500 
z
" transform="scale(0.015625)"/>
      <path id="DejaVuSans-2f" d="M 1625 4666 
L 2156 4666 
L 531 -594 
L 0 -594 
L 1625 4666 
z
" transform="scale(0.015625)"/>
     </defs>
     <use xlink:href="#DejaVuSans-49"/>
     <use xlink:href="#DejaVuSans-6e" transform="translate(29.492188 0)"/>
     <use xlink:href="#DejaVuSans-76" transform="translate(92.871094 0)"/>
     <use xlink:href="#DejaVuSans-65" transform="translate(152.050781 0)"/>
     <use xlink:href="#DejaVuSans-73" transform="translate(213.574219 0)"/>
     <use xlink:href="#DejaVuSans-74" transform="translate(265.673828 0)"/>
     <use xlink:href="#DejaVuSans-6d" transform="translate(304.882812 0)"/>
     <use xlink:href="#DejaVuSans-65" transform="translate(402.294922 0)"/>
     <use xlink:href="#DejaVuSans-6e" transform="translate(463.818359 0)"/>
     <use xlink:href="#DejaVuSans-74" transform="translate(527.197266 0)"/>
     <use xlink:href="#DejaVuSans-20" transform="translate(566.40625 0)"/>
     <use xlink:href="#DejaVuSans-53" transform="translate(598.193359 0)"/>
     <use xlink:href="#DejaVuSans-63" transform="translate(661.669922 0)"/>
     <use xlink:href="#DejaVuSans-6f" transform="translate(716.650391 0)"/>
     <use xlink:href="#DejaVuSans-72" transform="translate(777.832031 0)"/>
     <use xlink:href="#DejaVuSans-65" transform="translate(816.695312 0)"/>
     <use xlink:href="#DejaVuSans-3a" transform="translate(878.21875 0)"/>
     <use xlink:href="#DejaVuSans-20" transform="translate(911.910156 0)"/>
     <use xlink:href="#DejaVuSans-36" transform="translate(943.697266 0)"/>
     <use xlink:href="#DejaVuSans-30" transform="translate(1007.320312 0)"/>
     <use xlink:href="#DejaVuSans-2e" transform="translate(1070.943359 0)"/>
     <use xlink:href="#DejaVuSans-30" transform="translate(1102.730469 0)"/>
     <use xlink:href="#DejaVuSans-2f" transform="translate(1166.353516 0)"/>
     <use xlink:href="#DejaVuSans-31" transform="translate(1200.044922 0)"/>
     <use xlink:href="#DejaVuSans-30" transform="translate(1263.667969 0)"/>
     <use xlink:href="#DejaVuSans-30" transform="translate(1327.291016 0)"/>
    </g>
   </g>
   <g id="text_20">
    <!-- AAPL (Apple Inc.) - Price Prediction with Bullish Sentiment -->
    <g transform="translate(289.47875 19.3575) scale(0.16 -0.16)">
     <defs>
      <path id="DejaVuSans-41" d="M 2188 4044 
L 1331 1722 
L 3047 1722 
L 2188 4044 
z
M 1831 4666 
L 2547 4666 
L 4325 0 
L 3669 0 
L 3244 1197 
L 1141 1197 
L 716 0 
L 50 0 
L 1831 4666 
z
" transform="scale(0.015625)"/>
      <path id="DejaVuSans-4c" d="M 628 4666 
L 1259 4666 
L 1259 531 
L 3531 531 
L 3531 0 
L 628 0 
L 628 4666 
z
" transform="scale(0.015625)"/>
      <path id="DejaVuSans-70" d="M 1159 525 
L 1159 -1331 
L 581 -1331 
L 581 3500 
L 1159 3500 
L 1159 2969 
Q 1341 3281 1617 3432 
Q 1894 3584 2278 3584 
Q 2916 3584 3314 3078 
Q 3713 2572 3713 1747 
Q 3713 922 3314 415 
Q 2916 -91 2278 -91 
Q 1894 -91 1617 61 
Q 1341 213 1159 525 
z
M 3116 1747 
Q 3116 2381 2855 2742 
Q 2594 3103 2138 3103 
Q 1681 3103 1420 2742 
Q 1159 2381 1159 1747 
Q 1159 1113 1420 752 
Q 1681 391 2138 391 
Q 2594 391 2855 752 
Q 3116 1113 3116 1747 
z
" transform="scale(0.015625)"/>
      <path id="DejaVuSans-64" d="M 2906 2969 
L 2906 4863 
L 3481 4863 
L 3481 0 
L 2906 0 
L 2906 525 
Q 2725 213 2448 61 
Q 2172 -91 1784 -91 
Q 1150 -91 751 415 
Q 353 922 353 1747 
Q 353 2572 751 3078 
Q 1150 3584 1784 3584 
Q 2172 3584 2448 3432 
Q 2725 3281 2906 2969 
z
M 947 1747 
Q 947 1113 1208 752 
Q 1469 391 1925 391 
Q 2381 391 2643 752 
Q 2906 1113 2906 1747 
Q 2906 2381 2643 2742 
Q 2381 3103 1925 3103 
Q 1469 3103 1208 2742 
Q 947 2381 947 1747 
z
" transform="scale(0.015625)"/>
      <path id="DejaVuSans-77" d="M 269 3500 
L 844 3500 
L 1563 769 
L 2278 3500 
L 2956 3500 
L 3675 769 
L 4391 3500 
L 4966 3500 
L 4050 0 
L 3372 0 
L 2619 2869 
L 1863 0 
L 1184 0 
L 269 3500 
z
" transform="scale(0.015625)"/>
     </defs>
     <use xlink:href="#DejaVuSans-41"/>
     <use xlink:href="#DejaVuSans-41" transform="translate(71.158203 0)"/>
     <use xlink:href="#DejaVuSans-50" transform="translate(139.566406 0)"/>
     <use xlink:href="#DejaVuSans-4c" transform="translate(199.869141 0)"/>
     <use xlink:href="#DejaVuSans-20" transform="translate(255.582031 0)"/>
     <use xlink:href="#DejaVuSans-28" transform="translate(287.369141 0)"/>
     <use xlink:href="#DejaVuSans-41" transform="translate(326.382812 0)"/>
     <use xlink:href="#DejaVuSans-70" transform="translate(394.791016 0)"/>
     <use xlink:href="#DejaVuSans-70" transform="translate(458.267578 0)"/>
     <use xlink:href="#DejaVuSans-6c" transform="translate(521.744141 0)"/>
     <use xlink:href="#DejaVuSans-65" transform="translate(549.527344 0)"/>
     <use xlink:href="#DejaVuSans-20" transform="translate(611.050781 0)"/>
     <use xlink:href="#DejaVuSans-49" transform="translate(642.837891 0)"/>
     <use xlink:href="#DejaVuSans-6e" transform="translate(672.330078 0)"/>
     <use xlink:href="#DejaVuSans-63" transform="translate(735.708984 0)"/>
     <use xlink:href="#DejaVuSans-2e" transform="translate(790.689453 0)"/>
     <use xlink:href="#DejaVuSans-29" transform="translate(822.476562 0)"/>
     <use xlink:href="#DejaVuSans-20" transform="translate(861.490234 0)"/>
     <use xlink:href="#DejaVuSans-2d" transform="translate(893.277344 0)"/>
     <use xlink:href="#DejaVuSans-20" transform="translate(929.361328 0)"/>
     <use xlink:href="#DejaVuSans-50" transform="translate(961.148438 0)"/>
     <use xlink:href="#DejaVuSans-72" transform="translate(1019.701172 0)"/>
     <use xlink:href="#DejaVuSans-69" transform="translate(1060.814453 0)"/>
     <use xlink:href="#DejaVuSans-63" transform="translate(1088.597656 0)"/>
     <use xlink:href="#DejaVuSans-65" transform="translate(1143.578125 0)"/>
     <use xlink:href="#DejaVuSans-20" transform="translate(1205.101562 0)"/>
     <use xlink:href="#DejaVuSans-50" transform="translate(1236.888672 0)"/>
     <use xlink:href="#DejaVuSans-72" transform="translate(1295.441406 0)"/>
     <use xlink:href="#DejaVuSans-65" transform="translate(1334.304688 0)"/>
     <use xlink:href="#DejaVuSans-64" transform="translate(1395.828125 0)"/>
     <use xlink:href="#DejaVuSans-69" transform="translate(1459.304688 0)"/>
     <use xlink:href="#DejaVuSans-63" transform="translate(1487.087891 0)"/>
     <use xlink:href="#DejaVuSans-74" transform="translate(1542.068359 0)"/>
     <use xlink:href="#DejaVuSans-69" transform="translate(1581.277344 0)"/>
     <use xlink:href="#DejaVuSans-6f" transform="translate(1609.060547 0)"/>
     <use xlink:href="#DejaVuSans-6e" transform="translate(1670.242188 0)"/>
     <use xlink:href="#DejaVuSans-20" transform="translate(1733.621094 0)"/>
     <use xlink:href="#DejaVuSans-77" transform="translate(1765.408203 0)"/>
     <use xlink:href="#DejaVuSans-69" transform="translate(1847.195312 0)"/>
     <use xlink:href="#DejaVuSans-74" transform="translate(1874.978516 0)"/>
     <use xlink:href="#DejaVuSans-68" transform="translate(1914.1875 0)"/>
     <use xlink:href="#DejaVuSans-20" transform="translate(1977.566406 0)"/>
     <use xlink:href="#DejaVuSans-42" transform="translate(2009.353516 0)"/>
     <use xlink:href="#DejaVuSans-75" transform="translate(2077.957031 0)"/>
     <use xlink:href="#DejaVuSans-6c" transform="translate(2141.335938 0)"/>
     <use xlink:href="#DejaVuSans-6c" transform="translate(2169.119141 0)"/>
     <use xlink:href="#DejaVuSans-69" transform="translate(2196.902344 0)"/>
     <use xlink:href="#DejaVuSans-73" transform="translate(2224.685547 0)"/>
     <use xlink:href="#DejaVuSans-68" transform="translate(2276.785156 0)"/>
     <use xlink:href="#DejaVuSans-20" transform="translate(2340.164062 0)"/>
     <use xlink:href="#DejaVuSans-53" transform="translate(2371.951172 0)"/>
     <use xlink:href="#DejaVuSans-65" transform="translate(2435.427734 0)"/>
     <use xlink:href="#DejaVuSans-6e" transform="translate(2496.951172 0)"/>
     <use xlink:href="#DejaVuSans-74" transform="translate(2560.330078 0)"/>
     <use xlink:href="#DejaVuSans-69" transform="translate(2599.539062 0)"/>
     <use xlink:href="#DejaVuSans-6d" transform="translate(2627.322266 0)"/>
     <use xlink:href="#DejaVuSans-65" transform="translate(2724.734375 0)"/>
     <use xlink:href="#DejaVuSans-6e" transform="translate(2786.257812 0)"/>
     <use xlink:href="#DejaVuSans-74" transform="translate(2849.636719 0)"/>
    </g>
   </g>
   <g id="line2d_32">
    <path d="M 736.738001 209.558853 
L 744.070527 219.558573 
L 751.403053 231.593836 
L 758.735578 230.495264 
L 766.068104 236.649523 
L 773.40063 247.533133 
L 780.733156 247.0564 
L 788.065682 245.106054 
L 795.398208 253.533824 
L 802.730733 258.253481 
L 810.063259 259.230141 
L 817.395785 264.825831 
L 824.728311 272.97612 
L 832.060837 272.373872 
L 839.393363 277.73679 
L 846.725888 285.377401 
L 854.058414 287.332544 
L 861.39094 290.715951 
L 868.723466 294.842221 
L 876.055992 300.18698 
L 883.388518 307.149853 
L 890.721043 312.864415 
L 898.053569 315.045434 
L 905.386095 321.645362 
L 912.718621 324.552994 
L 920.051147 326.293005 
L 927.383673 336.278541 
L 934.716198 341.929326 
L 942.048724 347.623407 
L 949.38125 346.695793 
" clip-path="url(#p2bcd39f7cb)" style="fill: none; stroke-dasharray: 5.55,2.4; stroke-dashoffset: 0; stroke: #ff0000; stroke-width: 1.5"/>
   </g>
   <g id="line2d_33">
    <path d="M 735.701601 428.747964 
L 735.701601 25.3575 
" clip-path="url(#p2bcd39f7cb)" style="fill: none; stroke: #008000; stroke-opacity: 0.5; stroke-width: 1.5; stroke-linecap: square"/>
   </g>
   <g id="legend_1">
    <g id="patch_9">
     <path d="M 55.90125 77.391875 
L 192.735625 77.391875 
Q 194.735625 77.391875 194.735625 75.391875 
L 194.735625 32.3575 
Q 194.735625 30.3575 192.735625 30.3575 
L 55.90125 30.3575 
Q 53.90125 30.3575 53.90125 32.3575 
L 53.90125 75.391875 
Q 53.90125 77.391875 55.90125 77.391875 
z
" style="fill: #ffffff; opacity: 0.8; stroke: #cccccc; stroke-linejoin: miter"/>
    </g>
    <g id="line2d_34">
     <path d="M 57.90125 38.455938 
L 67.90125 38.455938 
L 77.90125 38.455938 
" style="fill: none; stroke: #0000ff; stroke-width: 1.5; stroke-linecap: square"/>
    </g>
    <g id="text_21">
     <!-- Historical Close Price -->
     <g transform="translate(85.90125 41.955938) scale(0.1 -0.1)">
      <defs>
       <path id="DejaVuSans-48" d="M 628 4666 
L 1259 4666 
L 1259 2753 
L 3553 2753 
L 3553 4666 
L 4184 4666 
L 4184 0 
L 3553 0 
L 3553 2222 
L 1259 2222 
L 1259 0 
L 628 0 
L 628 4666 
z
" transform="scale(0.015625)"/>
       <path id="DejaVuSans-43" d="M 4122 4306 
L 4122 3641 
Q 3803 3938 3442 4084 
Q 3081 4231 2675 4231 
Q 1875 4231 1450 3742 
Q 1025 3253 1025 2328 
Q 1025 1406 1450 917 
Q 1875 428 2675 428 
Q 3081 428 3442 575 
Q 3803 722 4122 1019 
L 4122 359 
Q 3791 134 3420 21 
Q 3050 -91 2638 -91 
Q 1578 -91 968 557 
Q 359 1206 359 2328 
Q 359 3453 968 4101 
Q 1578 4750 2638 4750 
Q 3056 4750 3426 4639 
Q 3797 4528 4122 4306 
z
" transform="scale(0.015625)"/>
      </defs>
      <use xlink:href="#DejaVuSans-48"/>
      <use xlink:href="#DejaVuSans-69" transform="translate(75.195312 0)"/>
      <use xlink:href="#DejaVuSans-73" transform="translate(102.978516 0)"/>
      <use xlink:href="#DejaVuSans-74" transform="translate(155.078125 0)"/>
      <use xlink:href="#DejaVuSans-6f" transform="translate(194.287109 0)"/>
      <use xlink:href="#DejaVuSans-72" transform="translate(255.46875 0)"/>
      <use xlink:href="#DejaVuSans-69" transform="translate(296.582031 0)"/>
      <use xlink:href="#DejaVuSans-63" transform="translate(324.365234 0)"/>
      <use xlink:href="#DejaVuSans-61" transform="translate(379.345703 0)"/>
      <use xlink:href="#DejaVuSans-6c" transform="translate(440.625 0)"/>
      <use xlink:href="#DejaVuSans-20" transform="translate(468.408203 0)"/>
      <use xlink:href="#DejaVuSans-43" transform="translate(500.195312 0)"/>
      <use xlink:href="#DejaVuSans-6c" transform="translate(570.019531 0)"/>
      <use xlink:href="#DejaVuSans-6f" transform="translate(597.802734 0)"/>
      <use xlink:href="#DejaVuSans-73" transform="translate(658.984375 0)"/>
      <use xlink:href="#DejaVuSans-65" transform="translate(711.083984 0)"/>
      <use xlink:href="#DejaVuSans-20" transform="translate(772.607422 0)"/>
      <use xlink:href="#DejaVuSans-50" transform="translate(804.394531 0)"/>
      <use xlink:href="#DejaVuSans-72" transform="translate(862.947266 0)"/>
      <use xlink:href="#DejaVuSans-69" transform="translate(904.060547 0)"/>
      <use xlink:href="#DejaVuSans-63" transform="translate(931.84375 0)"/>
      <use xlink:href="#DejaVuSans-65" transform="translate(986.824219 0)"/>
     </g>
    </g>
    <g id="line2d_35">
     <path d="M 57.90125 53.134063 
L 67.90125 53.134063 
L 77.90125 53.134063 
" style="fill: none; stroke-dasharray: 5.55,2.4; stroke-dashoffset: 0; stroke: #ff0000; stroke-width: 1.5"/>
    </g>
    <g id="text_22">
     <!-- Predicted Price -->
     <g transform="translate(85.90125 56.634063) scale(0.1 -0.1)">
      <use xlink:href="#DejaVuSans-50"/>
      <use xlink:href="#DejaVuSans-72" transform="translate(58.552734 0)"/>
      <use xlink:href="#DejaVuSans-65" transform="translate(97.416016 0)"/>
      <use xlink:href="#DejaVuSans-64" transform="translate(158.939453 0)"/>
      <use xlink:href="#DejaVuSans-69" transform="translate(222.416016 0)"/>
      <use xlink:href="#DejaVuSans-63" transform="translate(250.199219 0)"/>
      <use xlink:href="#DejaVuSans-74" transform="translate(305.179688 0)"/>
      <use xlink:href="#DejaVuSans-65" transform="translate(344.388672 0)"/>
      <use xlink:href="#DejaVuSans-64" transform="translate(405.912109 0)"/>
      <use xlink:href="#DejaVuSans-20" transform="translate(469.388672 0)"/>
      <use xlink:href="#DejaVuSans-50" transform="translate(501.175781 0)"/>
      <use xlink:href="#DejaVuSans-72" transform="translate(559.728516 0)"/>
      <use xlink:href="#DejaVuSans-69" transform="translate(600.841797 0)"/>
      <use xlink:href="#DejaVuSans-63" transform="translate(628.625 0)"/>
      <use xlink:href="#DejaVuSans-65" transform="translate(683.605469 0)"/>
     </g>
    </g>
    <g id="line2d_36">
     <path d="M 57.90125 67.812187 
L 67.90125 67.812187 
L 77.90125 67.812187 
" style="fill: none; stroke: #008000; stroke-opacity: 0.5; stroke-width: 1.5; stroke-linecap: square"/>
    </g>
    <g id="text_23">
     <!-- Today -->
     <g transform="translate(85.90125 71.312187) scale(0.1 -0.1)">
      <defs>
       <path id="DejaVuSans-54" d="M -19 4666 
L 3928 4666 
L 3928 4134 
L 2272 4134 
L 2272 0 
L 1638 0 
L 1638 4134 
L -19 4134 
L -19 4666 
z
" transform="scale(0.015625)"/>
       <path id="DejaVuSans-79" d="M 2059 -325 
Q 1816 -950 1584 -1140 
Q 1353 -1331 966 -1331 
L 506 -1331 
L 506 -850 
L 844 -850 
Q 1081 -850 1212 -737 
Q 1344 -625 1503 -206 
L 1606 56 
L 191 3500 
L 800 3500 
L 1894 763 
L 2988 3500 
L 3597 3500 
L 2059 -325 
z
" transform="scale(0.015625)"/>
      </defs>
      <use xlink:href="#DejaVuSans-54"/>
      <use xlink:href="#DejaVuSans-6f" transform="translate(44.083984 0)"/>
      <use xlink:href="#DejaVuSans-64" transform="translate(105.265625 0)"/>
      <use xlink:href="#DejaVuSans-61" transform="translate(168.742188 0)"/>
      <use xlink:href="#DejaVuSans-79" transform="translate(230.021484 0)"/>
     </g>
    </g>
   </g>
   <g id="line2d_37">
    <defs>
     <path id="mfd7feb250b" d="M 0 3 
C 0.795609 3 1.55874 2.683901 2.12132 2.12132 
C 2.683901 1.55874 3 0.795609 3 0 
C 3 -0.795609 2.683901 -1.55874 2.12132 -2.12132 
C 1.55874 -2.683901 0.795609 -3 0 -3 
C -0.795609 -3 -1.55874 -2.683901 -2.12132 -2.12132 
C -2.683901 -1.55874 -3 -0.795609 -3 0 
C -3 0.795609 -2.683901 1.55874 -2.12132 2.12132 
C -1.55874 2.683901 -0.795609 3 0 3 
z
" style="stroke: #0000ff; stroke-opacity: 0"/>
    </defs>
    <g clip-path="url(#p2bcd39f7cb)">
     <use xlink:href="#mfd7feb250b" x="421.744912" y="120.787126" style="fill: #0000ff; fill-opacity: 0; stroke: #0000ff; stroke-opacity: 0"/>
    </g>
   </g>
   <g id="line2d_38">
    <g clip-path="url(#p2bcd39f7cb)">
     <use xlink:href="#mfd7feb250b" x="458.407541" y="138.018964" style="fill: #0000ff; fill-opacity: 0; stroke: #0000ff; stroke-opacity: 0"/>
    </g>
   </g>
   <g id="line2d_39">
    <g clip-path="url(#p2bcd39f7cb)">
     <use xlink:href="#mfd7feb250b" x="480.405119" y="156.617876" style="fill: #0000ff; fill-opacity: 0; stroke: #0000ff; stroke-opacity: 0"/>
    </g>
   </g>
   <g id="line2d_40">
    <g clip-path="url(#p2bcd39f7cb)">
     <use xlink:href="#mfd7feb250b" x="517.067748" y="122.440398" style="fill: #0000ff; fill-opacity: 0; stroke: #0000ff; stroke-opacity: 0"/>
    </g>
   </g>
   <g id="line2d_41">
    <g clip-path="url(#p2bcd39f7cb)">
     <use xlink:href="#mfd7feb250b" x="561.062903" y="95.069554" style="fill: #0000ff; fill-opacity: 0; stroke: #0000ff; stroke-opacity: 0"/>
    </g>
   </g>
   <g id="line2d_42">
    <g clip-path="url(#p2bcd39f7cb)">
     <use xlink:href="#mfd7feb250b" x="583.06048" y="91.18001" style="fill: #0000ff; fill-opacity: 0; stroke: #0000ff; stroke-opacity: 0"/>
    </g>
   </g>
   <g id="line2d_43">
    <g clip-path="url(#p2bcd39f7cb)">
     <use xlink:href="#mfd7feb250b" x="619.72311" y="109.871409" style="fill: #0000ff; fill-opacity: 0; stroke: #0000ff; stroke-opacity: 0"/>
    </g>
   </g>
   <g id="line2d_44">
    <g clip-path="url(#p2bcd39f7cb)">
     <use xlink:href="#mfd7feb250b" x="656.385739" y="118.262733" style="fill: #0000ff; fill-opacity: 0; stroke: #0000ff; stroke-opacity: 0"/>
    </g>
   </g>
   <g id="line2d_45">
    <g clip-path="url(#p2bcd39f7cb)">
     <use xlink:href="#mfd7feb250b" x="678.383316" y="127.986567" style="fill: #0000ff; fill-opacity: 0; stroke: #0000ff; stroke-opacity: 0"/>
    </g>
   </g>
   <g id="line2d_46">
    <g clip-path="url(#p2bcd39f7cb)">
     <use xlink:href="#mfd7feb250b" x="714.740423" y="180.17122" style="fill: #0000ff; fill-opacity: 0; stroke: #0000ff; stroke-opacity: 0"/>
    </g>
   </g>
   <g id="line2d_47">
    <defs>
     <path id="m00c301062f" d="M 0 3 
C 0.795609 3 1.55874 2.683901 2.12132 2.12132 
C 2.683901 1.55874 3 0.795609 3 0 
C 3 -0.795609 2.683901 -1.55874 2.12132 -2.12132 
C 1.55874 -2.683901 0.795609 -3 0 -3 
C -0.795609 -3 -1.55874 -2.683901 -2.12132 -2.12132 
C -2.683901 -1.55874 -3 -0.795609 -3 0 
C -3 0.795609 -2.683901 1.55874 -2.12132 2.12132 
C -1.55874 2.683901 -0.795609 3 0 3 
z
" style="stroke: #ff0000; stroke-opacity: 0"/>
    </defs>
    <g clip-path="url(#p2bcd39f7cb)">
     <use xlink:href="#m00c301062f" x="736.738001" y="209.558853" style="fill: #ff0000; fill-opacity: 0; stroke: #ff0000; stroke-opacity: 0"/>
    </g>
   </g>
   <g id="line2d_48">
    <g clip-path="url(#p2bcd39f7cb)">
     <use xlink:href="#m00c301062f" x="758.735578" y="230.495264" style="fill: #ff0000; fill-opacity: 0; stroke: #ff0000; stroke-opacity: 0"/>
    </g>
   </g>
   <g id="line2d_49">
    <g clip-path="url(#p2bcd39f7cb)">
     <use xlink:href="#m00c301062f" x="780.733156" y="247.0564" style="fill: #ff0000; fill-opacity: 0; stroke: #ff0000; stroke-opacity: 0"/>
    </g>
   </g>
   <g id="line2d_50">
    <g clip-path="url(#p2bcd39f7cb)">
     <use xlink:href="#m00c301062f" x="802.730733" y="258.253481" style="fill: #ff0000; fill-opacity: 0; stroke: #ff0000; stroke-opacity: 0"/>
    </g>
   </g>
   <g id="line2d_51">
    <g clip-path="url(#p2bcd39f7cb)">
     <use xlink:href="#m00c301062f" x="824.728311" y="272.97612" style="fill: #ff0000; fill-opacity: 0; stroke: #ff0000; stroke-opacity: 0"/>
    </g>
   </g>
   <g id="line2d_52">
    <g clip-path="url(#p2bcd39f7cb)">
     <use xlink:href="#m00c301062f" x="846.725888" y="285.377401" style="fill: #ff0000; fill-opacity: 0; stroke: #ff0000; stroke-opacity: 0"/>
    </g>
   </g>
   <g id="line2d_53">
    <g clip-path="url(#p2bcd39f7cb)">
     <use xlink:href="#m00c301062f" x="868.723466" y="294.842221" style="fill: #ff0000; fill-opacity: 0; stroke: #ff0000; stroke-opacity: 0"/>
    </g>
   </g>
   <g id="line2d_54">
    <g clip-path="url(#p2bcd39f7cb)">
     <use xlink:href="#m00c301062f" x="890.721043" y="312.864415" style="fill: #ff0000; fill-opacity: 0; stroke: #ff0000; stroke-opacity: 0"/>
    </g>
   </g>
   <g id="line2d_55">
    <g clip-path="url(#p2bcd39f7cb)">
     <use xlink:href="#m00c301062f" x="912.718621" y="324.552994" style="fill: #ff0000; fill-opacity: 0; stroke: #ff0000; stroke-opacity: 0"/>
    </g>
   </g>
   <g id="line2d_56">
    <g clip-path="url(#p2bcd39f7cb)">
     <use xlink:href="#m00c301062f" x="934.716198" y="341.929326" style="fill: #ff0000; fill-opacity: 0; stroke: #ff0000; stroke-opacity: 0"/>
    </g>
   </g>
  </g>
 </g>
 <defs>
  <clipPath id="p2bcd39f7cb">
   <rect x="48.90125" y="25.3575" width="943.36" height="403.390464"/>
  </clipPath>
 </defs>

            <script type="text/javascript"><![CDATA[
                // JavaScript to add interactivity
                function init() {
                    // Get all circle elements (data points)
                    var dataPoints = document.querySelectorAll('circle');
                    var annotations = document.querySelectorAll('.annotation');
                    
                    // Add event listeners to each data point
                    dataPoints.forEach(function(point, index) {
                        // Create tooltip if it doesn't exist
                        var tooltip = document.createElementNS("http://www.w3.org/2000/svg", "g");
                        tooltip.setAttribute("class", "tooltip");
                        tooltip.style.visibility = "hidden";
                        
                        var rect = document.createElementNS("http://www.w3.org/2000/svg", "rect");
                        rect.setAttribute("rx", "5");
                        rect.setAttribute("ry", "5");
                        rect.setAttribute("width", "120");
                        rect.setAttribute("height", "40");
                        rect.setAttribute("fill", "white");
                        rect.setAttribute("stroke", "#999");
                        rect.setAttribute("stroke-width", "1");
                        
                        var text = document.createElementNS("http://www.w3.org/2000/svg", "text");
                        text.setAttribute("x", "10");
                        text.setAttribute("y", "20");
                        text.setAttribute("font-size", "12");
                        text.textContent = "Price: $" + (Math.random() * 100 + 50).toFixed(2);
                        
                        var dateText = document.createElementNS("http://www.w3.org/2000/svg", "text");
                        dateText.setAttribute("x", "10");
                        dateText.setAttribute("y", "35");
                        dateText.setAttribute("font-size", "12");
                        dateText.textContent = "Date: 2025-03-" + (index + 1);
                        
                        tooltip.appendChild(rect);
                        tooltip.appendChild(text);
                        tooltip.appendChild(dateText);
                        
                        point.parentNode.appendChild(tooltip);
                        
                        // Show tooltip on mouseover
                        point.addEventListener('mouseover', function(e) {
                            tooltip.style.visibility = "visible";
                            var ctm = point.getScreenCTM();
                            var x = ctm.e + 15;
                            var y = ctm.f - 50;
                            tooltip.setAttribute("transform", "translate(" + x + "," + y + ")");
                        });
                        
                        // Hide tooltip on mouseout
                        point.addEventListener('mouseout', function() {
                            tooltip.style.visibility = "hidden";
                        });
                    });
                }
                
                // Add event listener once SVG is loaded
                document.addEventListener('DOMContentLoaded', init);
            ]]></script>
            </svg>
